<svg width="305" height="42" viewBox="0 0 305 42" fill="none" xmlns="http://www.w3.org/2000/svg">
<g clip-path="url(#clip0_8758_23620)">
<path d="M23.9739 9.01318V17.0045H15.9826V32.987H7.99129V17.0045H0V9.01318H23.9739Z" fill="#0A9E01"/>
<path d="M47.9474 9.01318H31.9648V17.0045H47.9474V9.01318Z" fill="#0A9E01"/>
<path d="M47.9465 24.9957V32.987H23.9727V17.0044H31.9639V24.9957H47.9465Z" fill="#0A9E01"/>
<path d="M63.0528 14.6067H52.0781V17.7766H55.7541V27.7124H59.3768V17.7766H63.0528V14.6067Z" fill="#0A9E01"/>
<path d="M67.1814 17.6702C64.5976 17.6702 62.6797 19.4016 62.6797 22.8112C62.6797 25.8213 64.3046 27.9257 67.2614 27.9257C68.8063 27.9257 70.0583 27.5261 71.257 26.8069L69.9784 24.6492C68.9928 25.1553 68.3002 25.3418 67.4212 25.3418C66.5155 25.3418 65.8762 24.8623 65.743 23.7702H71.5234C71.55 23.6104 71.55 23.3973 71.55 23.1042C71.5767 19.4549 69.8985 17.6702 67.1814 17.6702ZM65.7963 21.6658C65.9028 20.6802 66.329 20.1741 67.1015 20.1741C68.0871 20.1741 68.4334 20.6802 68.5932 21.6658H65.7963Z" fill="#0A9E01"/>
<path d="M77.9727 25.182C77.067 25.182 76.5875 24.3828 76.5875 22.8112C76.5875 21.2662 77.0137 20.3872 77.8928 20.3872C78.612 20.3872 78.9316 20.7868 79.4111 21.6658L81.7286 19.9077C80.8762 18.5226 79.8107 17.6702 77.946 17.6702C74.8028 17.6702 73.2578 19.7479 73.2578 22.758C73.2578 26.061 74.9893 27.899 77.8661 27.899C79.5976 27.899 80.6631 27.2331 81.8085 25.5549L79.6775 23.8767C79.0382 24.8357 78.612 25.182 77.9727 25.182Z" fill="#0A9E01"/>
<path d="M89.5868 17.6701C88.4148 17.6701 87.7222 18.0696 87.1095 18.5225V14.074L83.7266 15.4325V27.7391H87.1095V22.1185C87.1095 20.8932 87.5357 20.5469 88.255 20.5469C88.9475 20.5469 89.3737 20.8932 89.3737 22.1452V27.7391H92.7567V21.719C92.7567 19.1351 91.7179 17.6701 89.5868 17.6701Z" fill="#0A9E01"/>
<path d="M100.879 24.7556C99.3079 24.7556 98.6686 23.1573 98.6686 21.1595C98.6686 19.0818 99.3345 17.5634 100.853 17.5634C102.052 17.5634 102.504 18.3359 102.957 19.5613L106.26 18.256C105.355 15.7787 104.076 14.3936 100.853 14.3936C97.3367 14.3936 94.8594 16.9508 94.8594 21.1595C94.8594 25.0486 96.9371 27.9255 100.826 27.9255C103.943 27.9255 105.408 26.2473 106.287 24.5425L103.224 22.9176C102.504 24.1429 102.025 24.7556 100.879 24.7556Z" fill="black"/>
<path d="M111.719 18.6025V17.8833H108.336V27.7126H111.719V22.3584C111.719 21.1597 112.225 20.7601 113.051 20.7601C113.717 20.7601 114.196 21.1064 114.622 21.5859L115.422 18.0964C115.022 17.8566 114.542 17.6702 113.823 17.6702C112.944 17.6702 112.278 18.0431 111.719 18.6025Z" fill="black"/>
<path d="M122.644 23.5038C122.644 24.7292 122.218 25.0755 121.525 25.0755C120.833 25.0755 120.406 24.7292 120.406 23.4772V17.8833H117.023V23.9034C117.023 26.4873 118.062 27.9257 120.22 27.9257C121.365 27.9257 122.085 27.5261 122.671 27.0733V27.7392H126.054V17.9099H122.671L122.644 23.5038Z" fill="black"/>
<path d="M134.333 17.6702C133.161 17.6702 132.468 18.0697 131.856 18.5226V17.8566H128.473V27.6859H131.856V22.0654C131.856 20.84 132.282 20.4938 133.001 20.4938C133.694 20.4938 134.12 20.84 134.12 22.092V27.6859H137.503V21.6658C137.503 19.1352 136.491 17.6702 134.333 17.6702Z" fill="black"/>
<path d="M144.218 25.182C143.312 25.182 142.833 24.3828 142.833 22.8112C142.833 21.2662 143.259 20.3872 144.112 20.3872C144.831 20.3872 145.15 20.7868 145.63 21.6658L147.947 19.9077C147.095 18.5226 146.029 17.6702 144.165 17.6702C141.022 17.6702 139.477 19.7479 139.477 22.758C139.477 26.061 141.208 27.899 144.085 27.899C145.816 27.899 146.882 27.2331 148.027 25.5549L145.896 23.8767C145.31 24.8357 144.857 25.182 144.218 25.182Z" fill="black"/>
<path d="M155.829 17.6701C154.657 17.6701 153.964 18.0696 153.352 18.5225V14.074L149.969 15.4325V27.7391H153.352V22.1185C153.352 20.8932 153.778 20.5469 154.497 20.5469C155.19 20.5469 155.616 20.8932 155.616 22.1452V27.7391H158.999V21.719C159.026 19.1351 157.987 17.6701 155.829 17.6701Z" fill="black"/>
</g>
<defs>
<clipPath id="clip0_8758_23620">
<rect width="159" height="23.9739" fill="white" transform="translate(0 9.01318)"/>
</clipPath>
</defs>
</svg>
