<svg width="24" height="24" viewBox="0 0 24 24" fill="none" xmlns="http://www.w3.org/2000/svg">
<g clip-path="url(#clip0_8758_23552)">
<path d="M9 3H12H14H19C19.5304 3 20.0391 3.24313 20.4142 3.67591C20.7893 4.10868 21 4.69565 21 5.30769V15.6923C21 16.3043 20.7893 16.8913 20.4142 17.3241C20.0391 17.7569 19.5304 18 19 18H9C8.46957 18 7.96086 17.7569 7.58579 17.3241C7.21071 16.8913 7 16.3043 7 15.6923V5.30769C7 4.69565 7.21071 4.10868 7.58579 3.67591C7.96086 3.24313 8.46957 3 9 3Z" stroke="#8395A7" stroke-width="1.8" stroke-linecap="round" stroke-linejoin="round"/>
<path d="M11 7H17" stroke="#8395A7" stroke-width="1.8" stroke-linecap="round" stroke-linejoin="round"/>
<path d="M11 10.5H17" stroke="#8395A7" stroke-width="1.8" stroke-linecap="round" stroke-linejoin="round"/>
<path d="M17 18V19.6923C17 20.3043 16.7893 20.8913 16.4142 21.3241C16.0391 21.7569 15.5304 22 15 22H5C4.46957 22 3.96086 21.7569 3.58579 21.3241C3.21071 20.8913 3 20.3043 3 19.6923V9.30769C3 8.69565 3.21071 8.10868 3.58579 7.67591C3.96086 7.24313 4.46957 7 5 7H7" stroke="#8395A7" stroke-width="1.8" stroke-linecap="round" stroke-linejoin="round"/>
</g>
<defs>
<clipPath id="clip0_8758_23552">
<rect width="24" height="24" fill="white"/>
</clipPath>
</defs>
</svg>
