<svg width="22" height="22" viewBox="0 0 22 22" fill="none" xmlns="http://www.w3.org/2000/svg">
<path fill-rule="evenodd" clip-rule="evenodd" d="M11.0031 0.106445C4.98967 0.106445 0.109375 4.98674 0.109375 11.0002C0.109375 17.0137 4.98967 21.894 11.0031 21.894H15.2031C16.0005 21.894 16.6469 21.2476 16.6469 20.4502C16.6469 19.6529 16.0005 19.0065 15.2031 19.0065H11.0031C6.6636 19.0065 2.99688 15.3398 2.99688 11.0002C2.99688 6.66067 6.6636 2.99395 11.0031 2.99395C15.3427 2.99395 19.0094 6.66067 19.0094 11.0002V12.5017C19.0094 12.8013 18.8722 13.1202 18.6399 13.3673C18.4077 13.6142 18.1123 13.7565 17.8282 13.7565C17.544 13.7565 17.2486 13.6142 17.0164 13.3673C16.7841 13.1202 16.6469 12.8013 16.6469 12.5017V11.0002C16.6469 7.88475 14.1186 5.35645 11.0031 5.35645C7.88767 5.35645 5.35938 7.88475 5.35938 11.0002C5.35938 14.1157 7.88767 16.644 11.0031 16.644C12.4041 16.644 13.6968 16.1322 14.6828 15.2802C15.4577 16.1209 16.6126 16.644 17.8282 16.644C20.1242 16.644 21.8969 14.7774 21.8969 12.5017V11.0002C21.8969 4.98674 17.0166 0.106445 11.0031 0.106445ZM8.24689 11.0002C8.24689 9.47467 9.4776 8.24396 11.0031 8.24396C12.5287 8.24396 13.7594 9.47467 13.7594 11.0002C13.7594 12.5258 12.5287 13.7565 11.0031 13.7565C9.4776 13.7565 8.24689 12.5258 8.24689 11.0002Z" fill="#40354B"/>
</svg>
